<svg width="353" height="344" viewBox="0 0 353 344" fill="none" xmlns="http://www.w3.org/2000/svg">
<g clip-path="url(#clip0_14_60)">
<path d="M332.106 94.9452C328.801 88.9673 325.134 83.1978 321.126 77.6691C318.318 73.7903 315.351 70.0409 312.224 66.421H312.216C306.559 59.8678 300.407 53.7616 293.813 48.1565C292.464 47.0074 291.096 45.8818 289.71 44.7797C277.2 34.8005 263.328 26.6723 248.515 20.6435L248.647 42.3467L250.064 289.751H127.217L120.308 42.8135L120.823 21.4569C60.5946 46.8561 18.3055 106.574 18.3055 176.2C18.2943 190.571 20.1228 204.884 23.7462 218.788C25.2767 224.666 27.1296 230.454 29.2965 236.127C30.0787 238.186 30.904 240.227 31.7723 242.249C32.1908 243.234 32.6172 244.21 33.0592 245.183C33.6263 246.454 34.2169 247.72 34.8232 248.971C35.2925 249.956 35.7749 250.934 36.2704 251.905C36.9079 253.18 37.5663 254.444 38.2456 255.698C38.7697 256.682 39.3095 257.659 39.8571 258.631C48.6915 274.3 59.9727 288.448 73.2718 300.537C77.0619 303.984 81.0058 307.253 85.1036 310.342C114.098 332.188 149.385 344 185.653 344C221.921 344 257.207 332.188 286.202 310.342C288.431 308.663 290.615 306.929 292.753 305.138C294.173 303.953 295.57 302.746 296.942 301.518C297.306 301.192 297.67 300.867 298.03 300.537C310.291 289.392 320.843 276.492 329.344 262.255C332.466 257.035 335.297 251.646 337.824 246.112C338.493 244.653 339.141 243.181 339.768 241.696C342.654 234.887 345.082 227.892 347.035 220.757C347.336 219.655 347.627 218.549 347.907 217.439V217.435C347.954 217.243 348.005 217.047 348.052 216.855C348.342 215.686 348.619 214.509 348.885 213.333V213.329C349.746 209.536 350.472 205.698 351.064 201.814C351.138 201.316 351.212 200.818 351.283 200.32C351.31 200.139 351.338 199.959 351.357 199.779V199.775C351.78 196.774 352.123 193.752 352.386 190.707C352.793 185.926 352.997 181.091 353 176.2C353.044 147.774 345.853 119.806 332.106 94.9452Z" fill="#F2F2F2"/>
<path d="M315.671 277.491C325.576 264.072 329.385 245.169 321.681 230.369C314.454 247.016 301.589 260.564 285.36 268.615C279.09 271.698 271.796 274.471 268.894 280.84C267.088 284.803 267.432 289.482 268.883 293.588C270.335 297.694 272.804 301.348 275.247 304.951L275.376 306.031C290.757 299.637 305.766 290.911 315.671 277.491Z" fill="#E6E6E6"/>
<path d="M321.352 230.487C320.908 244.299 316.135 257.62 307.711 268.557C305.94 270.944 303.804 273.036 301.382 274.756C298.97 276.355 296.174 277.277 293.286 277.426C290.595 277.619 287.821 277.504 285.225 278.35C283.902 278.803 282.69 279.531 281.667 280.486C280.645 281.441 279.835 282.603 279.292 283.894C277.854 287.076 277.643 290.586 277.555 294.025C277.457 297.844 277.416 301.813 275.619 305.284C275.401 305.705 276.065 306.019 276.282 305.599C279.408 299.559 277.378 292.495 279.241 286.146C280.11 283.183 281.875 280.465 284.825 279.277C287.405 278.239 290.266 278.355 292.991 278.183C295.811 278.079 298.562 277.284 301.005 275.868C303.506 274.277 305.719 272.271 307.549 269.936C311.752 264.745 315.114 258.923 317.514 252.685C320.292 245.58 321.837 238.051 322.083 230.424C322.098 229.951 321.367 230.018 321.352 230.487Z" fill="white"/>
<path d="M310.631 265.195C312.652 266.363 315.023 266.773 317.318 266.35C319.613 265.928 321.684 264.701 323.16 262.889C323.457 262.522 322.902 262.041 322.604 262.409C321.232 264.099 319.303 265.241 317.165 265.63C315.027 266.019 312.821 265.629 310.944 264.53C310.536 264.292 310.225 264.958 310.631 265.195Z" fill="white"/>
<path d="M294.663 277.508C293.383 272.9 293.882 267.978 296.06 263.723C296.276 263.302 295.613 262.987 295.397 263.408C293.138 267.84 292.629 272.964 293.972 277.756C294.1 278.212 294.79 277.962 294.663 277.508Z" fill="white"/>
<path d="M319.319 245.614C318.443 245.326 317.652 244.823 317.017 244.153C316.382 243.482 315.924 242.663 315.682 241.771C315.56 241.313 314.869 241.564 314.991 242.019C315.262 243.003 315.77 243.907 316.47 244.649C317.17 245.392 318.04 245.952 319.005 246.279C319.094 246.318 319.194 246.321 319.284 246.288C319.375 246.256 319.45 246.19 319.494 246.104C319.535 246.016 319.54 245.915 319.507 245.823C319.474 245.731 319.407 245.656 319.319 245.614Z" fill="white"/>
<path d="M266.543 218.591C266.611 218.879 266.68 219.167 266.744 219.46C267.643 223.339 268.226 227.285 268.487 231.259C268.512 231.566 268.533 231.878 268.549 232.185C269.077 241.766 267.827 251.362 264.861 260.485C263.678 264.114 262.221 267.648 260.503 271.056C258.13 275.761 255.184 280.675 254.519 285.742C254.444 286.27 254.401 286.803 254.392 287.336L274.052 306.105C274.118 306.125 274.18 306.15 274.246 306.17L274.997 306.956C275.098 306.786 275.199 306.608 275.3 306.438C275.359 306.34 275.413 306.238 275.472 306.14C275.51 306.073 275.548 306.006 275.586 305.948C275.599 305.926 275.611 305.904 275.619 305.886C275.657 305.828 275.687 305.77 275.72 305.716C276.287 304.723 276.849 303.724 277.404 302.719C277.408 302.714 277.408 302.714 277.408 302.706C281.618 295.038 285.227 286.95 287.497 278.57C287.566 278.318 287.638 278.062 287.697 277.801C288.7 274.018 289.392 270.159 289.767 266.263C289.966 264.129 290.057 261.986 290.04 259.843C289.984 254.305 289.06 248.811 287.302 243.561C283.795 233.096 276.989 223.873 267.288 218.959C267.04 218.833 266.796 218.712 266.543 218.591Z" fill="#E6E6E6"/>
<path d="M266.35 218.883C274.289 230.179 278.476 243.696 278.317 257.514C278.336 260.489 277.886 263.449 276.986 266.284C276.019 269.017 274.341 271.441 272.124 273.304C270.092 275.082 267.808 276.666 266.243 278.908C265.459 280.068 264.928 281.381 264.685 282.762C264.442 284.142 264.493 285.558 264.835 286.917C265.597 290.325 267.536 293.255 269.531 296.055C271.746 299.163 274.096 302.356 274.746 306.213C274.825 306.68 275.543 306.53 275.465 306.064C274.334 299.354 268.472 294.94 266.146 288.745C265.061 285.855 264.838 282.619 266.481 279.89C267.917 277.504 270.271 275.869 272.344 274.086C274.533 272.301 276.252 270.005 277.352 267.4C278.394 264.62 278.956 261.683 279.015 258.714C279.254 252.031 278.444 245.353 276.614 238.923C274.566 231.573 271.279 224.629 266.895 218.39C266.624 218.004 266.08 218.499 266.35 218.883Z" fill="white"/>
<path d="M278.63 253.068C280.945 252.78 283.084 251.676 284.663 249.953C286.241 248.23 287.158 246 287.249 243.662C287.266 243.189 286.533 243.141 286.516 243.615C286.436 245.792 285.582 247.869 284.108 249.47C282.635 251.071 280.639 252.092 278.481 252.347C278.012 252.403 278.163 253.123 278.63 253.068Z" fill="white"/>
<path d="M273.273 272.538C269.484 269.632 266.927 265.401 266.112 260.688C266.031 260.221 265.313 260.371 265.393 260.837C266.251 265.74 268.921 270.138 272.87 273.153C273.247 273.44 273.648 272.824 273.273 272.538Z" fill="white"/>
<path d="M273.81 232.188C272.937 232.486 272.004 232.563 271.094 232.411C270.184 232.258 269.327 231.882 268.598 231.315C268.225 231.023 267.825 231.64 268.195 231.93C269.003 232.552 269.951 232.967 270.955 233.138C271.96 233.308 272.991 233.229 273.958 232.908C274.052 232.886 274.134 232.828 274.187 232.747C274.24 232.667 274.26 232.569 274.243 232.473C274.223 232.378 274.166 232.295 274.085 232.241C274.004 232.188 273.905 232.168 273.81 232.188Z" fill="white"/>
<path d="M7.8124 202.33C-0.972304 188.148 -3.23706 168.997 5.64197 154.874C11.4949 172.055 23.22 186.606 38.7427 195.953C44.7422 199.536 51.7871 202.895 54.1636 209.479C55.6424 213.576 54.9204 218.212 53.1407 222.186C51.3608 226.161 48.6037 229.601 45.8767 232.993L45.6609 234.059C30.8493 226.433 16.5971 216.513 7.8124 202.33Z" fill="#E6E6E6"/>
<path d="M5.95992 155.019C5.28284 168.821 8.96021 182.487 16.4697 194.074C18.0422 196.597 20.0015 198.856 22.2755 200.768C24.5506 202.558 27.2624 203.705 30.129 204.089C32.7947 204.501 35.569 204.612 38.0884 205.667C39.37 206.226 40.5194 207.05 41.461 208.086C42.4027 209.121 43.1153 210.345 43.5524 211.676C44.7273 214.964 44.6538 218.48 44.4628 221.915C44.2506 225.73 43.9701 229.688 45.4793 233.295C45.6621 233.732 44.9752 233.991 44.7926 233.555C42.1668 227.28 44.7622 220.405 43.4203 213.925C42.7941 210.901 41.2553 208.048 38.4114 206.624C35.9245 205.379 33.0637 205.261 30.3611 204.867C27.5591 204.534 24.8812 203.518 22.5613 201.907C20.1976 200.118 18.1547 197.938 16.5203 195.462C12.7519 189.945 9.87206 183.869 7.98614 177.455C5.79326 170.148 4.86326 162.518 5.23637 154.895C5.25965 154.424 5.98306 154.55 5.95992 155.019Z" fill="white"/>
<path d="M13.8327 190.486C11.7228 191.485 9.32727 191.7 7.07397 191.092C4.82067 190.484 2.85631 189.092 1.53169 187.166C1.265 186.775 1.85793 186.341 2.12498 186.733C3.35516 188.529 5.1851 189.825 7.28452 190.387C9.38395 190.949 11.6146 190.739 13.5738 189.797C13.9998 189.593 14.2562 190.283 13.8327 190.486Z" fill="white"/>
<path d="M28.75 204.058C30.3992 199.57 30.3008 194.624 28.4743 190.205C28.293 189.768 28.9799 189.509 29.161 189.946C31.0531 194.547 31.1451 199.695 29.4187 204.362C29.2538 204.806 28.5861 204.501 28.75 204.058Z" fill="white"/>
<path d="M6.7597 170.261C7.65643 170.045 8.48559 169.609 9.17271 168.992C9.85983 168.375 10.3834 167.597 10.6964 166.727C10.8555 166.28 11.5231 166.587 11.365 167.03C11.0147 167.99 10.4355 168.849 9.67781 169.532C8.92016 170.215 8.00717 170.702 7.01862 170.949C6.92739 170.981 6.82774 170.976 6.73992 170.936C6.65211 170.896 6.58271 170.824 6.54583 170.735C6.51201 170.644 6.5155 170.543 6.55554 170.454C6.59559 170.365 6.66896 170.296 6.7597 170.261Z" fill="white"/>
<path d="M61.5516 147.628C61.4601 147.909 61.3686 148.191 61.2808 148.478C60.0706 152.271 59.1698 156.156 58.5871 160.096C58.5372 160.4 58.4913 160.709 58.4502 161.013C57.1474 170.519 57.616 180.186 59.8323 189.52C60.7176 193.234 61.8835 196.875 63.3197 200.411C65.3034 205.295 67.8418 210.432 68.0933 215.537C68.1255 216.069 68.1248 216.603 68.0912 217.136L46.9745 234.24C46.9071 234.255 46.8433 234.275 46.7756 234.29L45.9636 235.011C45.8768 234.834 45.7906 234.648 45.7038 234.471C45.6531 234.369 45.607 234.262 45.5562 234.16C45.5239 234.09 45.4917 234.02 45.4586 233.959C45.4477 233.936 45.4371 233.913 45.4301 233.895C45.397 233.834 45.3726 233.774 45.3433 233.717C44.8586 232.681 44.3804 231.639 43.9085 230.593C43.9046 230.588 43.9046 230.588 43.9054 230.579C40.3304 222.593 37.3888 214.238 35.8055 205.701C35.758 205.444 35.7063 205.183 35.6684 204.918C34.976 201.066 34.5987 197.164 34.5404 193.25C34.5153 191.107 34.5985 188.964 34.7895 186.829C35.2937 181.314 36.6599 175.913 38.8379 170.824C43.1813 160.68 50.712 152.041 60.7794 147.934C61.037 147.829 61.2901 147.728 61.5516 147.628Z" fill="#E6E6E6"/>
<path d="M61.7206 147.935C52.8925 158.546 47.6233 171.677 46.6616 185.463C46.4021 188.427 46.61 191.413 47.2779 194.312C48.0196 197.115 49.4963 199.668 51.5545 201.705C53.4356 203.643 55.5836 205.407 56.962 207.77C57.6497 208.99 58.0725 210.342 58.2025 211.738C58.3326 213.133 58.167 214.54 57.7166 215.867C56.6803 219.202 54.5107 221.964 52.2953 224.592C49.8357 227.509 47.2347 230.501 46.2742 234.292C46.1578 234.751 45.4538 234.543 45.57 234.084C47.2412 227.489 53.4413 223.567 56.261 217.582C57.5767 214.79 58.0612 211.583 56.6453 208.729C55.4072 206.234 53.1938 204.413 51.2722 202.467C49.2353 200.509 47.7074 198.081 46.8221 195.395C46.0091 192.539 45.6867 189.566 45.8687 186.601C46.1722 179.922 47.5213 173.332 49.8665 167.072C52.5035 159.914 56.3423 153.26 61.2169 147.399C61.5188 147.037 62.0205 147.574 61.7206 147.935Z" fill="white"/>
<path d="M46.7107 181.006C44.426 180.53 42.3843 179.255 40.9503 177.409C39.5163 175.564 38.7833 173.267 38.8823 170.929C38.8872 170.834 38.9288 170.744 38.9983 170.679C39.0679 170.614 39.1599 170.578 39.2551 170.58C39.3502 170.581 39.4411 170.62 39.5084 170.687C39.5758 170.755 39.6144 170.846 39.6162 170.941C39.52 173.118 40.203 175.257 41.5418 176.973C42.8807 178.69 44.7872 179.869 46.9174 180.3C47.3802 180.394 47.1708 181.099 46.7107 181.006Z" fill="white"/>
<path d="M50.4717 200.848C54.4833 198.261 57.3748 194.252 58.5695 189.621C58.6875 189.162 59.3915 189.37 59.2737 189.828C58.0214 194.645 55.0039 198.81 50.8235 201.494C50.4248 201.75 50.0752 201.103 50.4717 200.848Z" fill="white"/>
<path d="M53.2071 160.588C54.0529 160.956 54.9768 161.109 55.8958 161.031C56.8148 160.953 57.7002 160.648 58.4724 160.142C58.8676 159.882 59.2168 160.529 58.8242 160.788C57.9684 161.343 56.9902 161.679 55.975 161.767C54.9598 161.855 53.9386 161.693 53.0005 161.294C52.9089 161.263 52.8322 161.199 52.786 161.115C52.7398 161.03 52.7276 160.931 52.7517 160.837C52.7796 160.744 52.843 160.665 52.9283 160.618C53.0136 160.572 53.1138 160.561 53.2071 160.588Z" fill="white"/>
<path d="M170.885 57.5581C183.725 57.5581 194.134 47.1206 194.134 34.2453C194.134 21.3701 183.725 10.9326 170.885 10.9326C158.044 10.9326 147.635 21.3701 147.635 34.2453C147.635 47.1206 158.044 57.5581 170.885 57.5581Z" fill="#FF6584"/>
<path d="M242.07 33.0288C239.976 30.8097 237.764 28.7045 235.445 26.7223C230.915 22.871 225.901 19.5961 220.312 17.5332C218.207 16.754 216.033 16.18 213.819 15.8193C213.553 15.7762 213.291 15.733 213.025 15.6977C213.005 15.6958 212.986 15.6958 212.966 15.6977C212.925 15.6861 212.883 15.6782 212.841 15.6742C212.297 15.6036 211.754 15.5487 211.206 15.5095C208.257 15.3129 205.295 15.5802 202.429 16.3017C200.766 16.7225 199.143 17.2894 197.579 17.996C196.012 18.7651 194.493 19.6282 193.03 20.5805C192.244 21.0591 191.435 21.4976 190.605 21.8944C188.182 23.0455 185.617 23.8685 182.978 24.3417C181.195 24.6623 179.39 24.8407 177.58 24.8751C176.008 24.9065 174.525 24.9613 173.035 25.53C171.445 26.1292 170.016 27.0932 168.864 28.3448C167.711 29.5965 166.866 31.1012 166.397 32.7385C166.36 32.884 166.371 33.0374 166.427 33.1764C166.484 33.3155 166.583 33.4328 166.71 33.5112C167.113 33.8014 167.504 34.1308 167.931 34.3897C168.307 34.5619 168.708 34.6718 169.12 34.7152C169.793 34.8564 170.467 34.9937 171.142 35.127C173.626 35.6212 176.12 36.0591 178.624 36.4409C183.662 37.2056 188.729 37.7443 193.824 38.0567C193.855 38.0613 193.886 38.0639 193.918 38.0645C199.674 38.4129 205.444 38.4692 211.206 38.2332C212.078 38.1979 212.946 38.1547 213.819 38.1038C217.452 37.8998 221.077 37.5782 224.692 37.139C228.036 36.7311 231.368 36.2252 234.686 35.6212C237.056 35.1898 239.417 34.7087 241.769 34.1779C241.883 34.144 241.987 34.0812 242.07 33.9954C242.153 33.9097 242.212 33.8039 242.243 33.6884C242.273 33.5729 242.273 33.4515 242.243 33.3359C242.213 33.2204 242.153 33.1146 242.07 33.0288Z" fill="#E6E6E6"/>
<path d="M193.746 64.114C190.38 60.5036 186.671 57.2304 182.673 54.3406C181.347 53.4072 179.982 52.5287 178.577 51.7246C176.856 50.7282 175.068 49.8516 173.227 49.1009C172.816 48.9322 172.401 48.7714 171.987 48.6185C169.631 47.7437 167.188 47.1283 164.7 46.783C164.68 46.7791 164.661 46.783 164.641 46.7791C164.602 46.7713 164.559 46.7634 164.52 46.7556C163.314 46.5987 162.099 46.524 160.882 46.532C160.01 46.532 159.134 46.5791 158.266 46.6654C156.863 46.8039 155.472 47.0451 154.104 47.387C153.427 47.5556 152.755 47.7517 152.094 47.9753C151.13 48.2934 150.183 48.6626 149.258 49.0813C149.242 49.0891 149.231 49.093 149.215 49.1009C147.662 49.8626 146.157 50.7192 144.709 51.6658C144.678 51.6854 144.643 51.705 144.611 51.7246C142.966 52.7113 141.226 53.5286 139.417 54.1641C137.864 54.7086 136.271 55.1308 134.653 55.4269C132.871 55.7484 131.066 55.9255 129.255 55.9564C127.683 55.9878 126.201 56.0427 124.714 56.6153C123.123 57.2144 121.694 58.1782 120.541 59.4299C119.388 60.6815 118.543 62.1862 118.073 63.8238C118.036 63.9692 118.047 64.1224 118.104 64.2613C118.16 64.4002 118.259 64.5175 118.386 64.5964C118.789 64.8867 119.184 65.2122 119.606 65.471C119.982 65.6445 120.383 65.7545 120.795 65.7966C121.468 65.9378 122.141 66.0789 122.817 66.2123C125.301 66.7064 127.796 67.1431 130.304 67.5222C133.742 68.0438 137.194 68.4609 140.661 68.7733C142.304 68.9263 143.948 69.0518 145.593 69.1498C149.813 69.4047 154.038 69.5041 158.266 69.4479C159.138 69.4361 160.01 69.4165 160.882 69.3891C166.061 69.2361 171.224 68.8465 176.371 68.2203C182.109 67.5243 187.807 66.536 193.444 65.2592C193.559 65.2257 193.662 65.1633 193.745 65.0779C193.828 64.9925 193.887 64.8871 193.917 64.7719C193.948 64.6567 193.948 64.5356 193.918 64.4203C193.888 64.3051 193.828 64.1996 193.746 64.114Z" fill="#E6E6E6"/>
<path d="M135.794 1.54778L156.276 285.362L115.311 289.008V5.1587C120.192 1.33542 127.2 0.737256 135.794 1.54778Z" fill="#CCCCCC"/>
<path d="M236.899 1.54778L216.416 285.362L257.381 289.008V5.1587C252.5 1.33542 245.493 0.737256 236.899 1.54778Z" fill="#CCCCCC"/>
<path d="M260.214 0.282577C258.943 -2.84253 256.24 -5 253.115 -5H122.879C118.533 -5 115.001 -0.819314 115.001 4.32437V286.413C114.963 289.022 115.936 291.545 117.716 293.45C118.647 294.43 119.825 295.139 121.126 295.501C121.697 295.659 122.286 295.739 122.879 295.737H253.115C253.707 295.739 254.296 295.659 254.867 295.501C258.372 294.556 260.992 290.843 260.992 286.413V4.32438C260.996 2.93932 260.732 1.56671 260.214 0.282577ZM258.38 286.413C258.38 289.848 256.017 292.644 253.115 292.644H122.879C120.473 292.644 118.435 290.723 117.813 288.107C117.68 287.552 117.613 286.983 117.614 286.413V4.32438C117.614 0.889089 119.976 -1.90266 122.879 -1.90266H253.115C253.649 -1.90308 254.179 -1.80743 254.679 -1.62025C256.819 -0.833176 258.38 1.53264 258.38 4.32438V286.413Z" fill="#CCCCCC"/>
<path d="M257.817 85.7451H114.439V88.3669H257.817V85.7451Z" fill="#CCCCCC"/>
<path d="M257.817 31.6223H114.439V34.2442H257.817V31.6223Z" fill="#CCCCCC"/>
<path d="M257.817 129.443H114.439V132.065H257.817V129.443Z" fill="#CCCCCC"/>
<path d="M160.967 1.17658H158.352V166.586H160.967V1.17658Z" fill="#CCCCCC"/>
<path d="M213.905 1.17658H211.29V166.586H213.905V1.17658Z" fill="#CCCCCC"/>
<path d="M274.159 284.351H102.454C99.3352 284.355 96.3447 285.599 94.1391 287.811C91.9335 290.022 90.6927 293.021 90.689 296.148C90.6875 297.653 90.9757 299.143 91.5378 300.537C92.4113 302.724 93.9179 304.599 95.8635 305.92C97.8091 307.242 100.105 307.948 102.454 307.95H274.159C276.213 307.949 278.231 307.409 280.012 306.384C281.793 305.359 283.276 303.884 284.313 302.106C284.608 301.603 284.864 301.079 285.079 300.537C285.641 299.143 285.93 297.653 285.928 296.148C285.924 293.02 284.682 290.022 282.476 287.81C280.269 285.599 277.278 284.355 274.159 284.351Z" fill="#CCCCCC"/>
<path d="M257.817 160.468H115.311V169.208H257.817V160.468Z" fill="#CCCCCC"/>
<path d="M185.257 157.846H187.872C189.143 157.846 190.362 158.353 191.261 159.254C192.16 160.156 192.665 161.378 192.665 162.653H180.463C180.463 162.022 180.587 161.397 180.828 160.814C181.069 160.231 181.422 159.701 181.867 159.254C182.312 158.808 182.841 158.454 183.422 158.212C184.004 157.971 184.627 157.846 185.257 157.846Z" fill="#CCCCCC"/>
<path d="M189.078 185.116C203.994 185.116 216.085 172.992 216.085 158.036C216.085 143.08 203.994 130.956 189.078 130.956C174.162 130.956 162.071 143.08 162.071 158.036C162.071 172.992 174.162 185.116 189.078 185.116Z" fill="#FFB8B8"/>
<path d="M158.951 131.985C159.155 128.875 161.206 125.693 167.722 124.03C167.722 124.03 178.906 109.691 194.102 117.21C194.102 117.21 201.469 115.939 206.932 123.604C206.932 123.604 212.348 120.401 214.634 126.078C214.634 126.078 220.986 137.659 218.647 149.471C216.309 161.283 215.112 162.757 215.112 162.757C215.112 162.757 218.093 138.324 200.923 140.018C183.754 141.712 169.931 135.658 166.042 148.914C162.814 159.921 163.22 165.637 163.22 165.637C163.22 165.637 152.424 154.657 156.095 146.011C157.972 141.588 158.636 136.78 158.951 131.985Z" fill="#2F2E41"/>
<path d="M115.635 306.028H265.019C264.02 294.602 263.368 250.926 263.368 248.052C263.368 235.373 253.021 221.537 253.021 221.537L249.318 219.485L218.39 209.809L210.387 199.385C209.549 198.29 208.469 197.405 207.232 196.799C205.995 196.194 204.635 195.884 203.259 195.895L177.976 196.085C175.751 196.102 173.612 196.952 171.98 198.467L156.324 213.031L133.361 224.026L133.322 223.987L133.082 224.166L129.674 226.626L127.482 228.215C127.482 228.215 121.732 235.133 117.136 255.881C116.444 259.002 115.959 299.401 115.635 306.028Z" fill="#6C63FF"/>
<path d="M299.594 300.537C299.235 300.867 298.871 301.192 298.507 301.518C297.13 302.745 295.734 303.952 294.318 305.138C292.178 306.926 289.995 308.661 287.766 310.342H86.6682C82.573 307.259 78.6291 303.991 74.8364 300.537H299.594Z" fill="#CCCCCC"/>
<path d="M225.881 302.89H151.957L153.521 295.439H224.316L225.881 302.89Z" fill="#2F2E41"/>
<path d="M292.761 270.73H273.525C273.091 270.729 272.662 270.823 272.268 271.006C271.874 271.189 271.525 271.456 271.245 271.789C270.977 271.737 270.704 271.711 270.431 271.711C269.832 271.71 269.238 271.828 268.684 272.058C268.13 272.287 267.626 272.624 267.202 273.049C266.778 273.474 266.442 273.979 266.212 274.534C265.983 275.089 265.864 275.685 265.864 276.286C265.864 276.887 265.983 277.482 266.212 278.038C266.442 278.593 266.778 279.097 267.202 279.522C267.626 279.947 268.13 280.284 268.684 280.514C269.238 280.743 269.832 280.861 270.431 280.861C271.12 280.861 271.8 280.702 272.418 280.398L272.739 284.351L274.014 299.976C274.075 300.171 274.156 300.359 274.257 300.537C274.514 301.012 274.895 301.408 275.358 301.684C275.821 301.96 276.35 302.106 276.889 302.106H289.398C289.937 302.105 290.466 301.959 290.93 301.683C291.394 301.407 291.775 301.011 292.034 300.537C292.132 300.358 292.211 300.171 292.272 299.976L295.636 274.633C295.775 274.182 295.805 273.704 295.726 273.239C295.647 272.774 295.46 272.334 295.181 271.954C294.901 271.575 294.536 271.266 294.116 271.054C293.696 270.841 293.232 270.73 292.761 270.73ZM270.431 279.555C269.567 279.554 268.739 279.209 268.129 278.596C267.518 277.983 267.175 277.152 267.175 276.286C267.175 275.419 267.518 274.589 268.129 273.976C268.739 273.363 269.567 273.018 270.431 273.017C270.49 273.017 270.545 273.033 270.604 273.036C270.475 273.563 270.491 274.115 270.65 274.633L272.027 279.119C271.542 279.402 270.992 279.552 270.431 279.555Z" fill="#3F3D56"/>
<path d="M249.314 187.809H127.546C126.5 187.811 125.497 188.228 124.757 188.97C124.017 189.712 123.601 190.717 123.599 191.766V274.158C123.6 275.207 124.016 276.213 124.756 276.955C125.496 277.697 126.499 278.114 127.546 278.115H249.314C250.36 278.114 251.364 277.697 252.104 276.955C252.843 276.213 253.26 275.207 253.261 274.158V191.766C253.259 190.717 252.843 189.712 252.103 188.97C251.363 188.228 250.36 187.811 249.314 187.809Z" fill="#3F3D56"/>
<path d="M202.143 253.827H173.657C173.254 253.827 172.867 253.988 172.583 254.275C172.298 254.561 172.139 254.948 172.139 255.352V300.474H203.665V255.352C203.665 255.152 203.625 254.954 203.549 254.768C203.473 254.583 203.36 254.415 203.219 254.273C203.078 254.132 202.91 254.019 202.725 253.943C202.541 253.866 202.343 253.827 202.143 253.827ZM187.996 279.465C187.105 279.46 186.252 279.104 185.622 278.472C184.992 277.84 184.636 276.985 184.632 276.092V270.887C184.633 269.993 184.988 269.136 185.618 268.505C186.249 267.873 187.104 267.518 187.996 267.518C188.887 267.518 189.742 267.873 190.373 268.505C191.004 269.136 191.358 269.993 191.359 270.887V276.092C191.355 276.985 191 277.84 190.37 278.472C189.74 279.104 188.887 279.46 187.996 279.465Z" fill="#2F2E41"/>
<path d="M172.041 299.031V303.384C172.042 303.61 172.131 303.826 172.29 303.986C172.449 304.145 172.665 304.235 172.89 304.235H202.914C203.138 304.234 203.354 304.144 203.512 303.985C203.671 303.826 203.761 303.61 203.762 303.384V299.031H172.041Z" fill="#3F3D56"/>
<path d="M246.725 273.297C247.786 273.297 248.647 272.434 248.647 271.369C248.647 270.305 247.786 269.442 246.725 269.442C245.663 269.442 244.802 270.305 244.802 271.369C244.802 272.434 245.663 273.297 246.725 273.297Z" fill="#2F2E41"/>
<path d="M142.917 268.573C142.829 268.573 142.742 268.591 142.66 268.625C142.578 268.659 142.504 268.708 142.442 268.771C142.379 268.834 142.33 268.908 142.296 268.99C142.262 269.072 142.245 269.159 142.245 269.248V272.719C142.245 272.897 142.316 273.069 142.442 273.195C142.568 273.321 142.739 273.392 142.917 273.392C143.096 273.392 143.266 273.321 143.392 273.195C143.519 273.069 143.59 272.897 143.59 272.719V269.248C143.59 269.159 143.573 269.072 143.539 268.99C143.505 268.908 143.456 268.834 143.393 268.771C143.331 268.708 143.256 268.659 143.175 268.625C143.093 268.591 143.006 268.573 142.917 268.573Z" fill="#2F2E41"/>
<path d="M146.571 268.573C146.482 268.573 146.395 268.591 146.313 268.625C146.231 268.659 146.157 268.708 146.095 268.771C146.032 268.834 145.983 268.908 145.949 268.99C145.915 269.072 145.898 269.159 145.898 269.248V272.719C145.898 272.898 145.969 273.069 146.095 273.196C146.221 273.322 146.392 273.393 146.571 273.393C146.749 273.393 146.92 273.322 147.046 273.196C147.172 273.069 147.243 272.898 147.243 272.719V269.248C147.243 269.159 147.226 269.072 147.192 268.99C147.158 268.908 147.109 268.834 147.046 268.771C146.984 268.708 146.91 268.659 146.828 268.625C146.746 268.591 146.659 268.573 146.571 268.573Z" fill="#2F2E41"/>
<path d="M150.224 268.573C150.135 268.573 150.048 268.591 149.966 268.625C149.885 268.659 149.811 268.708 149.748 268.771C149.686 268.834 149.636 268.908 149.602 268.99C149.568 269.072 149.551 269.159 149.551 269.248V272.719C149.551 272.897 149.623 273.069 149.749 273.195C149.875 273.321 150.046 273.392 150.224 273.392C150.402 273.392 150.573 273.321 150.699 273.195C150.825 273.069 150.896 272.897 150.897 272.719V269.248C150.897 269.159 150.879 269.072 150.845 268.99C150.812 268.908 150.762 268.834 150.7 268.771C150.637 268.708 150.563 268.659 150.481 268.625C150.4 268.591 150.312 268.573 150.224 268.573Z" fill="#2F2E41"/>
<path d="M153.877 268.573C153.789 268.573 153.701 268.591 153.62 268.625C153.538 268.659 153.464 268.708 153.401 268.771C153.339 268.834 153.289 268.908 153.255 268.99C153.222 269.072 153.204 269.159 153.204 269.248V272.719C153.205 272.897 153.276 273.069 153.402 273.195C153.528 273.321 153.699 273.392 153.877 273.392C154.055 273.392 154.226 273.321 154.352 273.195C154.478 273.069 154.549 272.897 154.55 272.719V269.248C154.55 269.159 154.532 269.072 154.499 268.99C154.465 268.908 154.415 268.834 154.353 268.771C154.29 268.708 154.216 268.659 154.134 268.625C154.053 268.591 153.965 268.573 153.877 268.573Z" fill="#2F2E41"/>
<path d="M156.792 300.929C162.408 300.929 166.961 296.364 166.961 290.732C166.961 285.101 162.408 280.535 156.792 280.535C151.175 280.535 146.622 285.101 146.622 290.732C146.622 296.364 151.175 300.929 156.792 300.929Z" fill="#FFB8B8"/>
<path d="M227.837 302.89C233.453 302.89 238.006 298.325 238.006 292.693C238.006 287.062 233.453 282.496 227.837 282.496C222.22 282.496 217.667 287.062 217.667 292.693C217.667 298.325 222.22 302.89 227.837 302.89Z" fill="#FFB8B8"/>
<path d="M332.804 169.612C331.8 167.945 330.609 166.166 328.744 165.622C326.584 164.992 324.366 166.243 322.484 167.479C316.856 171.173 311.437 175.177 306.25 179.472L306.256 179.537C310.294 179.258 313.645 190.024 317.683 189.744C320.6 189.543 324.305 178.268 326.883 176.884C327.861 176.359 328.815 175.657 329.924 175.609C331.301 175.548 332.502 176.512 333.446 177.52C339.029 183.481 340.644 192.597 346.908 197.835C342.958 188.068 338.242 178.631 332.804 169.612Z" fill="#3F3D56"/>
<path d="M343.55 184.091C346.495 189.425 349.619 194.653 352.922 199.775V199.779C352.902 199.959 352.875 200.139 352.847 200.32C352.448 199.708 352.053 199.094 351.662 198.477C348.697 193.813 345.88 189.061 343.21 184.22C341.943 181.918 340.707 179.598 339.502 177.259C338.571 175.447 337.66 173.625 336.768 171.792C336.514 171.266 336.267 170.741 336.021 170.211C335.442 168.972 334.871 167.725 334.261 166.501C333.564 165.105 332.716 163.646 331.437 162.708C330.855 162.264 330.159 161.995 329.43 161.932C328.403 161.938 327.398 162.227 326.524 162.767C319.907 166.255 313.732 170.525 308.129 175.486C302.519 180.428 297.505 186.01 293.188 192.119C293.055 192.307 292.742 192.127 292.875 191.935C293.403 191.19 293.935 190.456 294.482 189.727C301.269 180.677 309.59 172.895 319.065 166.736C320.657 165.701 322.28 164.714 323.935 163.775C324.768 163.301 325.605 162.834 326.458 162.395C327.274 161.915 328.189 161.63 329.133 161.563C332.379 161.512 334.061 165.199 335.215 167.678C335.575 168.458 335.941 169.237 336.314 170.015C337.718 172.956 339.177 175.874 340.691 178.769C341.622 180.553 342.575 182.327 343.55 184.091Z" fill="#3F3D56"/>
<path d="M307.81 173.665C307.621 173.455 307.434 173.244 307.244 173.033C305.747 171.373 304.141 169.733 302.086 168.781C301.106 168.313 300.036 168.065 298.951 168.053C297.831 168.083 296.727 168.325 295.696 168.764C295.205 168.961 294.726 169.183 294.254 169.421C293.715 169.693 293.185 169.983 292.658 170.276C291.668 170.825 290.691 171.398 289.727 171.996C287.808 173.185 285.95 174.464 284.152 175.835C283.22 176.545 282.307 177.279 281.413 178.036C280.582 178.74 279.767 179.462 278.97 180.203C278.799 180.361 278.545 180.106 278.715 179.948C278.925 179.751 279.138 179.556 279.351 179.364C279.951 178.819 280.562 178.285 281.181 177.762C282.312 176.805 283.471 175.886 284.66 175.003C286.509 173.63 288.421 172.35 290.397 171.164C291.384 170.571 292.385 170.003 293.4 169.461C293.706 169.297 294.016 169.137 294.33 168.985C295.041 168.625 295.78 168.323 296.54 168.083C297.616 167.734 298.755 167.621 299.878 167.754C300.963 167.912 302.008 168.274 302.958 168.822C304.976 169.953 306.541 171.702 308.064 173.409C308.218 173.582 307.965 173.839 307.81 173.665Z" fill="#3F3D56"/>
<path d="M293.042 181.651C292.529 181.676 292.023 181.531 291.601 181.237C290.484 180.389 290.513 178.351 291.69 175.007C292.011 174.101 292.513 173.271 293.166 172.567C293.819 171.864 294.609 171.302 295.487 170.916C296.309 170.547 297.199 170.354 298.1 170.349C299.001 170.343 299.894 170.526 300.721 170.885C300.865 170.948 301.007 171.015 301.148 171.087C302.105 171.625 303.002 172.263 303.824 172.991C304.523 173.599 305.268 174.151 306.053 174.642L306.315 174.796L306.067 174.972C299.731 179.444 295.435 181.651 293.042 181.651Z" fill="#3F3D56"/>
<path d="M317.407 155.033C315.323 155.033 313.304 154.308 311.695 152.981C310.085 151.655 308.985 149.809 308.581 147.76C306.839 148.114 305.24 148.977 303.987 150.24C302.734 151.504 301.882 153.112 301.539 154.861C301.196 156.609 301.377 158.421 302.06 160.066C302.743 161.712 303.896 163.117 305.375 164.106C306.854 165.095 308.592 165.622 310.369 165.622C312.146 165.621 313.884 165.093 315.362 164.103C316.84 163.113 317.993 161.707 318.674 160.061C319.356 158.415 319.536 156.603 319.192 154.855C318.604 154.974 318.006 155.033 317.407 155.033Z" fill="#3F3D56"/>
<path opacity="0.74" d="M76.5935 169.544C84.0078 169.544 90.0183 163.518 90.0183 156.083C90.0183 148.649 84.0078 142.622 76.5935 142.622C69.1792 142.622 63.1688 148.649 63.1688 156.083C63.1688 163.518 69.1792 169.544 76.5935 169.544Z" fill="#3F3D56"/>
<path opacity="0.74" d="M90.0183 169.544C97.4326 169.544 103.443 163.518 103.443 156.083C103.443 148.649 97.4326 142.622 90.0183 142.622C82.604 142.622 76.5936 148.649 76.5936 156.083C76.5936 163.518 82.604 169.544 90.0183 169.544Z" fill="#6C63FF"/>
<path opacity="0.74" d="M83.4195 158.816C90.8338 158.816 96.8442 152.789 96.8442 145.355C96.8442 137.921 90.8338 131.894 83.4195 131.894C76.0052 131.894 69.9947 137.921 69.9947 145.355C69.9947 152.789 76.0052 158.816 83.4195 158.816Z" fill="#FF6584"/>
<path d="M118.524 141.498L84.0408 152.36L84.2752 153.108L118.758 142.246L118.524 141.498Z" fill="#3F3D56"/>
<path d="M118.743 143.315C119.607 143.315 120.308 142.613 120.308 141.746C120.308 140.88 119.607 140.177 118.743 140.177C117.879 140.177 117.179 140.88 117.179 141.746C117.179 142.613 117.879 143.315 118.743 143.315Z" fill="#3F3D56"/>
<path d="M342.604 212.337C344.896 213.956 347.098 215.608 349.617 216.855C349.57 217.047 349.519 217.243 349.472 217.435C349.163 217.29 348.862 217.137 348.561 216.98C346.007 215.639 343.808 213.815 341.411 212.231C340.222 211.407 338.924 210.755 337.554 210.293C336.126 209.863 334.634 209.688 333.146 209.776C326.939 210.082 321.619 213.796 315.85 215.666C313.026 216.584 310.022 217.074 307.077 216.498C304.132 215.921 301.515 214.353 298.914 212.933C296.348 211.529 293.551 210.117 290.555 210.117C288.115 210.121 285.549 211.101 284.242 213.266C284.202 213.331 284.138 213.377 284.064 213.395C283.99 213.413 283.911 213.402 283.846 213.363C283.78 213.324 283.732 213.261 283.712 213.187C283.692 213.114 283.701 213.035 283.738 212.968C284.03 212.475 284.389 212.025 284.806 211.631C286.511 210.011 289.018 209.372 291.322 209.56C294.302 209.803 297.021 211.215 299.598 212.635C302.332 214.141 305.133 215.76 308.293 216.09C311.415 216.419 314.505 215.6 317.399 214.498C323.004 212.36 328.535 208.799 334.769 209.195C337.711 209.383 340.229 210.662 342.604 212.337Z" fill="#3F3D56"/>
<path d="M97.268 98.9103V99.7064C97.0052 99.6543 96.738 99.6281 96.4701 99.628H92.3788V108.437C92.378 109.741 91.861 110.991 90.9414 111.913C90.0217 112.836 88.7746 113.354 87.474 113.355H81.427V114.712C81.427 115.256 81.5347 115.794 81.7438 116.296H80.9068C80.7319 115.786 80.6433 115.251 80.6447 114.712V113.355H77.3201V112.57H80.6447V103.762C80.6455 102.458 81.1625 101.207 82.0821 100.285C83.0018 99.3628 84.2489 98.8444 85.5496 98.8436H91.5965V97.4709H92.3788V98.8436H96.4701C96.7374 98.8439 97.0043 98.8662 97.268 98.9103Z" fill="#6C63FF"/>
<path d="M87.4739 92.5685H76.5534C75.2528 92.5693 74.0056 93.0877 73.086 94.0098C72.1663 94.932 71.6493 96.1825 71.6486 97.4866V108.437C71.6493 109.741 72.1663 110.991 73.086 111.913C74.0056 112.836 75.2528 113.354 76.5534 113.355H87.4739C88.7745 113.354 90.0216 112.836 90.9413 111.913C91.861 110.991 92.378 109.741 92.3787 108.437V97.471C92.3741 96.1695 91.8553 94.9229 90.936 94.0041C90.0168 93.0853 88.7719 92.5691 87.4739 92.5685ZM91.5965 108.437C91.595 109.533 91.1602 110.583 90.3874 111.358C89.6146 112.133 88.5668 112.569 87.4739 112.57H76.5534C75.4605 112.569 74.4127 112.133 73.6399 111.358C72.8671 110.583 72.4323 109.533 72.4308 108.437V97.4866C72.4323 96.3908 72.8671 95.3402 73.6399 94.5653C74.4127 93.7904 75.4605 93.3544 76.5534 93.3529H87.4739C88.5642 93.3542 89.6097 93.788 90.3821 94.5595C91.1545 95.3311 91.5911 96.3777 91.5965 97.4709V108.437Z" fill="#3F3D56"/>
<path d="M80.6447 112.57V113.355H81.4269V112.57H80.6447ZM80.6447 112.57V113.355H81.4269V112.57H80.6447ZM97.2679 98.9103C97.0042 98.8662 96.7374 98.8439 96.47 98.8436H85.5495C84.2489 98.8444 83.0018 99.3628 82.0821 100.285C81.1624 101.207 80.6454 102.458 80.6447 103.762V114.712C80.6432 115.251 80.7318 115.786 80.9067 116.296C81.2369 117.268 81.8621 118.112 82.6946 118.71C83.5272 119.308 84.5255 119.63 85.5495 119.63H96.47C97.7706 119.629 99.0177 119.111 99.9374 118.189C100.857 117.266 101.374 116.016 101.375 114.712V103.762C101.375 102.596 100.961 101.469 100.209 100.58C99.4571 99.6918 98.4147 99.0999 97.2679 98.9103ZM100.593 114.712C100.591 115.808 100.156 116.858 99.3835 117.633C98.6107 118.408 97.5629 118.844 96.47 118.846H85.5495C84.4566 118.844 83.4089 118.408 82.6361 117.633C81.8633 116.858 81.4285 115.808 81.4269 114.712V103.762C81.4284 102.666 81.8632 101.615 82.636 100.84C83.4088 100.065 84.4566 99.6295 85.5495 99.628H96.47C97.5633 99.6284 98.6116 100.064 99.3846 100.839C100.158 101.614 100.592 102.666 100.593 103.762V114.712ZM80.6447 112.57V113.355H81.4269V112.57H80.6447Z" fill="#3F3D56"/>
<path d="M72.9198 214.811H26.5311C26.2082 214.812 25.8985 214.94 25.6698 215.169C25.4411 215.397 25.312 215.707 25.3108 216.031V218.788C26.8412 224.666 28.6941 230.454 30.861 236.127H72.9198C73.0796 236.127 73.2378 236.096 73.3855 236.035C73.5331 235.973 73.6673 235.884 73.7803 235.77C73.8932 235.657 73.9828 235.522 74.0439 235.374C74.105 235.226 74.1363 235.068 74.1362 234.907V216.031C74.1358 215.708 74.0076 215.398 73.7795 215.169C73.5515 214.94 73.2423 214.812 72.9198 214.811Z" fill="#6C63FF"/>
<path d="M68.5 242.249H33.3369C33.7554 243.234 34.1818 244.21 34.6238 245.183H68.5C70.4087 245.21 70.3892 242.222 68.5 242.249Z" fill="#E4E4E4"/>
<path d="M68.4999 248.971H36.3878C36.8571 249.956 37.3395 250.934 37.8349 251.905H68.4999C70.4087 251.933 70.3891 248.948 68.4999 248.971Z" fill="#E4E4E4"/>
<path d="M68.4999 255.698H39.8102C40.3343 256.682 40.874 257.659 41.4216 258.631H68.4999C70.4087 258.659 70.3891 255.67 68.4999 255.698Z" fill="#E4E4E4"/>
<path d="M308.99 74.9099H308.767C309.461 74.9105 310.145 75.0728 310.766 75.3838H309.751C308.658 75.3851 307.611 75.821 306.838 76.5959C306.065 77.3708 305.63 78.4215 305.629 79.5174V90.4678C305.63 91.5637 306.065 92.6143 306.838 93.3893C307.611 94.1642 308.658 94.6001 309.751 94.6013H310.398C309.878 94.8057 309.325 94.911 308.767 94.9118H308.99C310.187 94.9104 311.334 94.4331 312.18 93.5847C313.026 92.7363 313.502 91.5859 313.504 90.386V79.4356C313.502 78.2358 313.026 77.0854 312.18 76.237C311.334 75.3886 310.187 74.9113 308.99 74.9099Z" fill="#3F3D56"/>
<path opacity="0.21" d="M308.99 74.9099H308.767C309.461 74.9105 310.145 75.0728 310.766 75.3838H309.751C308.658 75.3851 307.611 75.821 306.838 76.5959C306.065 77.3708 305.63 78.4215 305.629 79.5174V90.4678C305.63 91.5637 306.065 92.6143 306.838 93.3893C307.611 94.1642 308.658 94.6001 309.751 94.6013H310.398C309.878 94.8057 309.325 94.911 308.767 94.9118H308.99C310.187 94.9104 311.334 94.4331 312.18 93.5847C313.026 92.7363 313.502 91.5859 313.504 90.386V79.4356C313.502 78.2358 313.026 77.0854 312.18 76.237C311.334 75.3886 310.187 74.9113 308.99 74.9099Z" fill="black"/>
<path d="M280.046 74.9099H279.823C280.517 74.9105 281.201 75.0728 281.822 75.3838H280.807C279.714 75.3851 278.667 75.821 277.894 76.5959C277.121 77.3708 276.686 78.4215 276.685 79.5174V90.4678C276.686 91.5637 277.121 92.6143 277.894 93.3893C278.667 94.1642 279.714 94.6001 280.807 94.6013H281.454C280.934 94.8057 280.381 94.911 279.823 94.9118H280.046C281.243 94.9104 282.39 94.4331 283.236 93.5847C284.082 92.7363 284.558 91.5859 284.56 90.386V79.4356C284.558 78.2358 284.082 77.0854 283.236 76.237C282.39 75.3886 281.243 74.9113 280.046 74.9099Z" fill="#6C63FF"/>
<path opacity="0.21" d="M280.046 74.9099H279.823C280.517 74.9105 281.201 75.0728 281.822 75.3838H280.807C279.714 75.3851 278.667 75.821 277.894 76.5959C277.121 77.3708 276.686 78.4215 276.685 79.5174V90.4678C276.686 91.5637 277.121 92.6143 277.894 93.3893C278.667 94.1642 279.714 94.6001 280.807 94.6013H281.454C280.934 94.8057 280.381 94.911 279.823 94.9118H280.046C281.243 94.9104 282.39 94.4331 283.236 93.5847C284.082 92.7363 284.558 91.5859 284.56 90.386V79.4356C284.558 78.2358 284.082 77.0854 283.236 76.237C282.39 75.3886 281.243 74.9113 280.046 74.9099Z" fill="black"/>
<path d="M280.851 94.6354C279.758 94.6342 278.71 94.1983 277.937 93.4234C277.165 92.6484 276.73 91.5978 276.729 90.5019V79.5515C276.73 78.4556 277.165 77.4049 277.937 76.63C278.71 75.8551 279.758 75.4192 280.851 75.4179H281.865C281.245 75.1069 280.561 74.9446 279.867 74.944H268.946C267.749 74.9454 266.602 75.4226 265.756 76.2711C264.91 77.1195 264.434 78.2699 264.432 79.4697V90.4201C264.434 91.62 264.91 92.7704 265.756 93.6188C266.602 94.4672 267.749 94.9445 268.946 94.9459H279.867C280.425 94.9451 280.978 94.8398 281.498 94.6354L280.851 94.6354Z" fill="#6C63FF"/>
<path d="M309.795 94.6354C308.702 94.6342 307.654 94.1983 306.881 93.4234C306.109 92.6484 305.674 91.5978 305.673 90.5019V79.5515C305.674 78.4556 306.109 77.4049 306.881 76.63C307.654 75.8551 308.702 75.4192 309.795 75.4179H310.809C310.189 75.1069 309.505 74.9446 308.811 74.944H297.89C296.693 74.9454 295.546 75.4226 294.7 76.2711C293.854 77.1195 293.378 78.2699 293.377 79.4697V90.4201C293.378 91.62 293.854 92.7704 294.7 93.6188C295.546 94.4672 296.693 94.9445 297.89 94.9459H308.811C309.369 94.9451 309.922 94.8398 310.442 94.6354L309.795 94.6354Z" fill="#3F3D56"/>
<path d="M322.691 77.6691C326.699 83.1978 330.365 88.9673 333.67 94.9452H326.833C325.636 94.9435 324.489 94.466 323.643 93.6177C322.797 92.7693 322.321 91.6191 322.319 90.4193V79.4693C322.319 78.85 322.445 78.2373 322.691 77.6691Z" fill="#FF6584"/>
<path d="M308.982 100.691L305.156 94.9452L302.36 90.7448C302.197 90.4995 301.967 90.3055 301.699 90.1854C301.43 90.0654 301.133 90.0241 300.842 90.0663C300.551 90.1086 300.278 90.2327 300.054 90.4243C299.831 90.6159 299.666 90.8671 299.579 91.1488L298.401 94.9452L296.031 102.573C295.937 102.877 295.939 103.203 296.034 103.506C296.13 103.809 296.315 104.076 296.566 104.271C296.817 104.466 297.121 104.579 297.438 104.596C297.754 104.613 298.069 104.533 298.339 104.366L299.18 103.844C299.349 103.739 299.542 103.68 299.741 103.671C299.939 103.662 300.137 103.704 300.315 103.794C300.493 103.883 300.645 104.016 300.757 104.181C300.869 104.345 300.937 104.536 300.956 104.734L301.726 113.167C301.762 113.554 301.941 113.914 302.227 114.176C302.514 114.439 302.887 114.585 303.275 114.586C303.322 114.586 303.369 114.582 303.42 114.578L304.601 114.473C304.805 114.454 305.003 114.395 305.184 114.3C305.365 114.204 305.526 114.074 305.656 113.916C305.787 113.759 305.886 113.577 305.946 113.381C306.007 113.185 306.028 112.979 306.009 112.774L305.215 104.068C305.196 103.863 305.231 103.657 305.317 103.471C305.403 103.284 305.536 103.124 305.704 103.005C305.871 102.887 306.066 102.814 306.27 102.796C306.474 102.777 306.68 102.813 306.866 102.899L307.038 102.977C307.346 103.12 307.692 103.157 308.023 103.084C308.355 103.011 308.653 102.831 308.873 102.572C309.093 102.313 309.223 101.989 309.243 101.65C309.262 101.31 309.171 100.973 308.982 100.691Z" fill="#CCCCCC"/>
</g>
<defs>
<clipPath id="clip0_14_60">
<rect width="353" height="344" fill="white"/>
</clipPath>
</defs>
</svg>
